<svg width="98" height="98" viewBox="0 0 98 98" fill="none" xmlns="http://www.w3.org/2000/svg">
<circle cx="49" cy="49" r="49" fill="#708B06"/>
<path d="M64.0018 40.11C63.7076 40.2624 63.3649 40.2917 63.049 40.1915C62.7332 40.0913 62.47 39.8698 62.3174 39.5756C61.1243 37.2186 59.3184 35.2264 57.0893 33.8085C56.9504 33.7208 56.8301 33.6067 56.7353 33.4726C56.6405 33.3385 56.573 33.187 56.5367 33.0269C56.5005 32.8667 56.4961 32.7009 56.5239 32.5391C56.5517 32.3772 56.6111 32.2224 56.6987 32.0835C56.7863 31.9445 56.9004 31.8242 57.0345 31.7294C57.1686 31.6346 57.3201 31.5672 57.4803 31.5309C57.6405 31.4946 57.8062 31.4902 57.9681 31.518C58.13 31.5458 58.2848 31.6052 58.4237 31.6928C61.0215 33.3562 63.1309 35.6797 64.5362 38.4256C64.6886 38.7199 64.7179 39.0626 64.6177 39.3784C64.5175 39.6943 64.296 39.9574 64.0018 40.11ZM34.5815 40.2506C34.8105 40.2506 35.0351 40.1875 35.2307 40.0685C35.4264 39.9495 35.5855 39.779 35.6909 39.5756C36.884 37.2186 38.69 35.2264 40.919 33.8085C41.1996 33.6315 41.3983 33.3504 41.4716 33.0269C41.5448 32.7034 41.4866 32.364 41.3096 32.0835C41.1327 31.8029 40.8515 31.6041 40.528 31.5309C40.2045 31.4576 39.8652 31.5159 39.5846 31.6928C36.9868 33.3562 34.8774 35.6797 33.4721 38.4256C33.3734 38.6161 33.3254 38.8288 33.3328 39.0433C33.3401 39.2577 33.4025 39.4666 33.5139 39.6499C33.6253 39.8333 33.7821 39.9848 33.9691 40.09C34.1561 40.1952 34.367 40.2506 34.5815 40.2506ZM63.6596 56.4913C63.8811 56.871 63.9985 57.3025 64 57.7421C64.0015 58.1817 63.8871 58.6139 63.6682 58.9952C63.4494 59.3764 63.1339 59.6932 62.7535 59.9137C62.3732 60.1341 61.9414 60.2503 61.5018 60.2506H55.1268C54.8399 61.6635 54.0734 62.9337 52.9571 63.8461C51.8409 64.7585 50.4435 65.2569 49.0018 65.2569C47.5601 65.2569 46.1628 64.7585 45.0465 63.8461C43.9302 62.9337 43.1637 61.6635 42.8768 60.2506H36.5018C36.0625 60.2498 35.6311 60.1331 35.2512 59.9125C34.8713 59.6919 34.5562 59.375 34.3378 58.9938C34.1193 58.6126 34.0051 58.1806 34.0068 57.7413C34.0084 57.3019 34.1258 56.8708 34.3471 56.4913C35.7549 54.0616 36.5018 50.6069 36.5018 46.5006C36.5018 43.1854 37.8188 40.006 40.163 37.6618C42.5072 35.3176 45.6866 34.0006 49.0018 34.0006C52.317 34.0006 55.4965 35.3176 57.8407 37.6618C60.1849 40.006 61.5018 43.1854 61.5018 46.5006C61.5018 50.6053 62.2487 54.06 63.6596 56.4913ZM52.5362 60.2506H45.4674C45.7264 60.981 46.2053 61.6131 46.8382 62.0602C47.4711 62.5073 48.2269 62.7474 49.0018 62.7474C49.7767 62.7474 50.5326 62.5073 51.1655 62.0602C51.7984 61.6131 52.2772 60.981 52.5362 60.2506ZM61.5018 57.7506C59.8393 54.896 59.0018 51.1116 59.0018 46.5006C59.0018 43.8485 57.9483 41.3049 56.0729 39.4296C54.1975 37.5542 51.654 36.5006 49.0018 36.5006C46.3497 36.5006 43.8061 37.5542 41.9308 39.4296C40.0554 41.3049 39.0018 43.8485 39.0018 46.5006C39.0018 51.1131 38.1612 54.8975 36.5018 57.7506H61.5018Z" fill="#F3EDDD"/>
</svg>
