<svg width="25" height="24" viewBox="0 0 25 24" fill="none" xmlns="http://www.w3.org/2000/svg">
<path d="M19.023 12.0994L14.1874 10.3125L12.4062 5.47313C12.3007 5.18656 12.1098 4.93924 11.8594 4.76455C11.6089 4.58985 11.3109 4.49619 11.0055 4.49619C10.7002 4.49619 10.4022 4.58985 10.1517 4.76455C9.90124 4.93924 9.71039 5.18656 9.60491 5.47313L7.8124 10.3125L2.97303 12.0938C2.68646 12.1992 2.43915 12.3901 2.26445 12.6405C2.08976 12.891 1.99609 13.189 1.99609 13.4944C1.99609 13.7997 2.08976 14.0978 2.26445 14.3482C2.43915 14.5987 2.68646 14.7895 2.97303 14.895L7.8124 16.6875L9.59366 21.5269C9.69914 21.8134 9.88998 22.0608 10.1404 22.2355C10.3909 22.4101 10.6889 22.5038 10.9943 22.5038C11.2996 22.5038 11.5977 22.4101 11.8481 22.2355C12.0986 22.0608 12.2894 21.8134 12.3949 21.5269L14.1874 16.6875L19.0268 14.9062C19.3133 14.8008 19.5607 14.6099 19.7354 14.3595C19.9101 14.109 20.0037 13.811 20.0037 13.5056C20.0037 13.2003 19.9101 12.9022 19.7354 12.6518C19.5607 12.4013 19.3133 12.2105 19.0268 12.105L19.023 12.0994ZM13.3437 15.3956C13.2419 15.4331 13.1494 15.4923 13.0727 15.569C12.996 15.6457 12.9368 15.7382 12.8993 15.84L10.9999 20.9859L9.10428 15.8438C9.06682 15.7409 9.00729 15.6474 8.92988 15.57C8.85246 15.4926 8.75903 15.4331 8.65616 15.3956L3.51397 13.5L8.65616 11.6044C8.75903 11.5669 8.85246 11.5074 8.92988 11.43C9.00729 11.3526 9.06682 11.2591 9.10428 11.1562L10.9999 6.01406L12.8955 11.1562C12.933 11.2581 12.9922 11.3505 13.0689 11.4272C13.1456 11.5039 13.2381 11.5631 13.3399 11.6006L18.4858 13.5L13.3437 15.3956ZM13.9999 3.75C13.9999 3.55109 14.0789 3.36032 14.2196 3.21967C14.3602 3.07902 14.551 3 14.7499 3H16.2499V1.5C16.2499 1.30109 16.3289 1.11032 16.4696 0.96967C16.6102 0.829018 16.801 0.75 16.9999 0.75C17.1988 0.75 17.3896 0.829018 17.5302 0.96967C17.6709 1.11032 17.7499 1.30109 17.7499 1.5V3H19.2499C19.4488 3 19.6396 3.07902 19.7802 3.21967C19.9209 3.36032 19.9999 3.55109 19.9999 3.75C19.9999 3.94891 19.9209 4.13968 19.7802 4.28033C19.6396 4.42098 19.4488 4.5 19.2499 4.5H17.7499V6C17.7499 6.19891 17.6709 6.38968 17.5302 6.53033C17.3896 6.67098 17.1988 6.75 16.9999 6.75C16.801 6.75 16.6102 6.67098 16.4696 6.53033C16.3289 6.38968 16.2499 6.19891 16.2499 6V4.5H14.7499C14.551 4.5 14.3602 4.42098 14.2196 4.28033C14.0789 4.13968 13.9999 3.94891 13.9999 3.75ZM23.7499 8.25C23.7499 8.44891 23.6709 8.63968 23.5302 8.78033C23.3896 8.92098 23.1988 9 22.9999 9H22.2499V9.75C22.2499 9.94891 22.1709 10.1397 22.0302 10.2803C21.8896 10.421 21.6988 10.5 21.4999 10.5C21.301 10.5 21.1102 10.421 20.9696 10.2803C20.8289 10.1397 20.7499 9.94891 20.7499 9.75V9H19.9999C19.801 9 19.6102 8.92098 19.4696 8.78033C19.3289 8.63968 19.2499 8.44891 19.2499 8.25C19.2499 8.05109 19.3289 7.86032 19.4696 7.71967C19.6102 7.57902 19.801 7.5 19.9999 7.5H20.7499V6.75C20.7499 6.55109 20.8289 6.36032 20.9696 6.21967C21.1102 6.07902 21.301 6 21.4999 6C21.6988 6 21.8896 6.07902 22.0302 6.21967C22.1709 6.36032 22.2499 6.55109 22.2499 6.75V7.5H22.9999C23.1988 7.5 23.3896 7.57902 23.5302 7.71967C23.6709 7.86032 23.7499 8.05109 23.7499 8.25Z" fill="white"/>
</svg>
