<svg width="40" height="41" viewBox="0 0 40 41" fill="none" xmlns="http://www.w3.org/2000/svg">
<path d="M36.2518 10.5312H31.769L35.8862 6.41563C36.0023 6.29949 36.0945 6.16161 36.1573 6.00987C36.2202 5.85813 36.2525 5.69549 36.2525 5.53125C36.2525 5.36701 36.2202 5.20437 36.1573 5.05263C36.0945 4.90089 36.0023 4.76301 35.8862 4.64688C35.7701 4.53074 35.6322 4.43861 35.4804 4.37576C35.3287 4.3129 35.1661 4.28056 35.0018 4.28056C34.8376 4.28056 34.6749 4.3129 34.5232 4.37576C34.3715 4.43861 34.2336 4.53074 34.1174 4.64688L30.0018 8.76406V4.28125C30.0018 3.94973 29.8701 3.63179 29.6357 3.39737C29.4013 3.16295 29.0833 3.03125 28.7518 3.03125C28.4203 3.03125 28.1024 3.16295 27.8679 3.39737C27.6335 3.63179 27.5018 3.94973 27.5018 4.28125V9.37031C25.5971 8.27076 23.3831 7.82977 21.2024 8.11562C19.0218 8.40148 16.9962 9.39823 15.4393 10.9516C9.17369 17.1063 4.46275 31.7453 4.00338 33.2094C3.78679 33.6743 3.71844 34.1946 3.80759 34.6997C3.89675 35.2048 4.1391 35.6702 4.50177 36.0329C4.86444 36.3955 5.32988 36.6379 5.83496 36.727C6.34005 36.8162 6.86034 36.7478 7.32525 36.5312C8.78932 36.0719 23.4471 31.3547 29.5862 25.0922C31.1384 23.5348 32.1341 21.5093 32.4191 19.329C32.7041 17.1487 32.2625 14.9353 31.1628 13.0312H36.2518C36.5833 13.0312 36.9013 12.8996 37.1357 12.6651C37.3701 12.4307 37.5018 12.1128 37.5018 11.7812C37.5018 11.4497 37.3701 11.1318 37.1357 10.8974C36.9013 10.6629 36.5833 10.5312 36.2518 10.5312ZM27.7956 23.3438C26.3987 24.7687 24.4753 26.125 22.3503 27.3641L18.3846 23.3969C18.2685 23.2807 18.1306 23.1886 17.9789 23.1258C17.8271 23.0629 17.6645 23.0306 17.5003 23.0306C17.336 23.0306 17.1734 23.0629 17.0216 23.1258C16.8699 23.1886 16.732 23.2807 16.6159 23.3969C16.4997 23.513 16.4076 23.6509 16.3448 23.8026C16.2819 23.9544 16.2496 24.117 16.2496 24.2812C16.2496 24.4455 16.2819 24.6081 16.3448 24.7599C16.4076 24.9116 16.4997 25.0495 16.6159 25.1656L20.0674 28.6172C13.6815 31.9281 6.57994 34.1516 6.47369 34.1844C6.39675 34.2093 6.32244 34.2418 6.25182 34.2812C6.28957 34.211 6.32044 34.1372 6.344 34.0609C6.38932 33.9156 10.719 20.0641 16.344 13.6437L21.6206 18.9203C21.8551 19.1549 22.1732 19.2866 22.5049 19.2866C22.8366 19.2866 23.1548 19.1549 23.3893 18.9203C23.6239 18.6858 23.7556 18.3676 23.7556 18.0359C23.7556 17.7042 23.6239 17.3861 23.3893 17.1516L18.1549 11.9187C19.6885 10.8276 21.5763 10.353 23.4436 10.589C25.3109 10.8251 27.0211 11.7546 28.2349 13.193C29.4487 14.6315 30.0773 16.4737 29.9959 18.3541C29.9145 20.2345 29.1291 22.0156 27.7956 23.3438Z" fill="#F28D52"/>
</svg>
