<svg width="48" height="48" viewBox="0 0 48 48" fill="none" xmlns="http://www.w3.org/2000/svg">
<path d="M33.6588 17.7258C33.8162 17.8829 33.941 18.0696 34.0262 18.275C34.1113 18.4805 34.1552 18.7007 34.1552 18.9231C34.1552 19.1455 34.1113 19.3657 34.0262 19.5711C33.941 19.7766 33.8162 19.9632 33.6588 20.1204L21.8127 31.9665C21.6555 32.1239 21.4689 32.2487 21.2634 32.3339C21.058 32.419 20.8378 32.4629 20.6154 32.4629C20.393 32.4629 20.1728 32.419 19.9673 32.3339C19.7619 32.2487 19.5753 32.1239 19.4181 31.9665L14.3412 26.8896C14.0236 26.5721 13.8452 26.1414 13.8452 25.6923C13.8452 25.2432 14.0236 24.8125 14.3412 24.495C14.6587 24.1775 15.0894 23.9991 15.5385 23.9991C15.9875 23.9991 16.4182 24.1775 16.7358 24.495L20.6154 28.3767L31.2642 17.7258C31.4214 17.5684 31.608 17.4436 31.8135 17.3584C32.0189 17.2733 32.2391 17.2294 32.4615 17.2294C32.6839 17.2294 32.9042 17.2733 33.1096 17.3584C33.315 17.4436 33.5017 17.5684 33.6588 17.7258ZM46 24C46 28.3512 44.7097 32.6047 42.2923 36.2225C39.8749 39.8404 36.439 42.6602 32.419 44.3253C28.3991 45.9905 23.9756 46.4261 19.708 45.5773C15.4404 44.7284 11.5204 42.6331 8.44366 39.5563C5.3669 36.4796 3.27161 32.5596 2.42273 28.292C1.57386 24.0244 2.00953 19.6009 3.67466 15.581C5.33979 11.561 8.15958 8.12506 11.7775 5.70767C15.3953 3.29028 19.6488 2 24 2C29.8329 2.00616 35.4251 4.32599 39.5495 8.45045C43.674 12.5749 45.9938 18.1671 46 24ZM42.6154 24C42.6154 20.3182 41.5236 16.7191 39.4781 13.6578C37.4326 10.5966 34.5253 8.21058 31.1238 6.80163C27.7223 5.39267 23.9794 5.02403 20.3683 5.7423C16.7573 6.46058 13.4404 8.23353 10.8369 10.8369C8.23354 13.4403 6.46059 16.7573 5.74231 20.3683C5.02403 23.9793 5.39268 27.7223 6.80164 31.1238C8.21059 34.5253 10.5966 37.4326 13.6579 39.4781C16.7191 41.5236 20.3182 42.6154 24 42.6154C28.9354 42.6098 33.667 40.6467 37.1569 37.1569C40.6467 33.667 42.6098 28.9354 42.6154 24Z" fill="white"/>
<path fill-rule="evenodd" clip-rule="evenodd" d="M42.6154 24C42.6154 20.3182 41.5236 16.7191 39.4781 13.6578C37.4326 10.5966 34.5253 8.21058 31.1238 6.80163C27.7223 5.39267 23.9794 5.02403 20.3683 5.7423C16.7573 6.46058 13.4404 8.23353 10.8369 10.8369C8.23354 13.4403 6.46059 16.7573 5.74231 20.3683C5.02403 23.9793 5.39268 27.7223 6.80164 31.1238C8.21059 34.5253 10.5966 37.4326 13.6579 39.4781C16.7191 41.5236 20.3182 42.6154 24 42.6154C28.9354 42.6098 33.667 40.6467 37.1569 37.1569C40.6467 33.667 42.6098 28.9354 42.6154 24ZM34.0262 18.275C33.941 18.0696 33.8162 17.8829 33.6588 17.7258C33.5017 17.5684 33.315 17.4436 33.1096 17.3584C32.9042 17.2733 32.6839 17.2294 32.4615 17.2294C32.2391 17.2294 32.0189 17.2733 31.8135 17.3584C31.608 17.4436 31.4214 17.5684 31.2642 17.7258L20.6154 28.3767L16.7358 24.495C16.4182 24.1775 15.9875 23.9991 15.5385 23.9991C15.0894 23.9991 14.6587 24.1775 14.3412 24.495C14.0236 24.8125 13.8452 25.2432 13.8452 25.6923C13.8452 26.1414 14.0236 26.5721 14.3412 26.8896L19.4181 31.9665C19.5753 32.1239 19.7619 32.2487 19.9673 32.3339C20.1728 32.419 20.393 32.4629 20.6154 32.4629C20.8378 32.4629 21.058 32.419 21.2634 32.3339C21.4689 32.2487 21.6555 32.1239 21.8127 31.9665L33.6588 20.1204C33.8162 19.9632 33.941 19.7766 34.0262 19.5711C34.1113 19.3657 34.1552 19.1455 34.1552 18.9231C34.1552 18.7007 34.1113 18.4805 34.0262 18.275Z" fill="#708B06"/>
</svg>
