<svg width="99" height="98" viewBox="0 0 99 98" fill="none" xmlns="http://www.w3.org/2000/svg">
<circle cx="49.7324" cy="49" r="49" fill="#708B06"/>
<path d="M40.9824 51.5H34.7324C34.4009 51.5 34.083 51.3683 33.8485 51.1339C33.6141 50.8995 33.4824 50.5815 33.4824 50.25C33.4824 49.9185 33.6141 49.6005 33.8485 49.3661C34.083 49.1317 34.4009 49 34.7324 49H40.3137L42.4418 45.8062C42.5559 45.6348 42.7106 45.4942 42.8922 45.3969C43.0737 45.2997 43.2765 45.2488 43.4824 45.2488C43.6884 45.2488 43.8911 45.2997 44.0727 45.3969C44.2542 45.4942 44.4089 45.6348 44.523 45.8062L48.4824 51.7437L49.9418 49.5562C50.056 49.385 50.2108 49.2446 50.3923 49.1476C50.5739 49.0506 50.7766 48.9999 50.9824 49H54.7324C55.0639 49 55.3819 49.1317 55.6163 49.3661C55.8507 49.6005 55.9824 49.9185 55.9824 50.25C55.9824 50.5815 55.8507 50.8995 55.6163 51.1339C55.3819 51.3683 55.0639 51.5 54.7324 51.5H51.6512L49.523 54.6938C49.4089 54.8652 49.2542 55.0058 49.0727 55.1031C48.8911 55.2003 48.6884 55.2512 48.4824 55.2512C48.2765 55.2512 48.0737 55.2003 47.8922 55.1031C47.7106 55.0058 47.5559 54.8652 47.4418 54.6938L43.4824 48.7531L42.023 50.9406C41.9092 51.1124 41.7546 51.2534 41.573 51.351C41.3914 51.4486 41.1886 51.4998 40.9824 51.5ZM57.5449 35.25C54.3184 35.25 51.4934 36.6375 49.7324 38.9828C47.9715 36.6375 45.1465 35.25 41.9199 35.25C39.3515 35.2529 36.8892 36.2745 35.073 38.0906C33.2569 39.9067 32.2353 42.3691 32.2324 44.9375C32.2324 45.0547 32.2324 45.1719 32.2324 45.2891C32.2428 45.6206 32.3844 45.9344 32.6262 46.1615C32.8679 46.3886 33.19 46.5104 33.5215 46.5C33.853 46.4896 34.1668 46.348 34.3939 46.1063C34.621 45.8645 34.7428 45.5425 34.7324 45.2109C34.7324 45.1203 34.7324 45.0281 34.7324 44.9375C34.7349 43.032 35.493 41.2053 36.8403 39.8579C38.1877 38.5105 40.0144 37.7525 41.9199 37.75C44.959 37.75 47.5105 39.3688 48.5762 41.9688C48.6703 42.198 48.8306 42.3941 49.0364 42.5321C49.2423 42.6701 49.4846 42.7438 49.7324 42.7438C49.9803 42.7438 50.2225 42.6701 50.4284 42.5321C50.6343 42.3941 50.7945 42.198 50.8887 41.9688C51.9543 39.3641 54.5059 37.75 57.5449 37.75C59.4504 37.7525 61.2771 38.5105 62.6245 39.8579C63.9719 41.2053 64.7299 43.032 64.7324 44.9375C64.7324 53.3141 52.5824 60.8984 49.7324 62.5625C48.0402 61.5766 43.0715 58.5 39.3137 54.4047C39.2027 54.2836 39.0689 54.1856 38.92 54.1162C38.7711 54.0469 38.61 54.0075 38.4459 54.0004C38.2818 53.9933 38.1179 54.0186 37.9636 54.0748C37.8093 54.131 37.6675 54.2171 37.5465 54.3281C37.4254 54.4391 37.3274 54.5729 37.258 54.7218C37.1887 54.8707 37.1493 55.0318 37.1422 55.1959C37.1351 55.36 37.1604 55.5239 37.2166 55.6782C37.2728 55.8325 37.3589 55.9743 37.4699 56.0953C42.3402 61.4078 48.8652 64.9516 49.1402 65.1C49.3223 65.1979 49.5257 65.2492 49.7324 65.2492C49.9391 65.2492 50.1426 65.1979 50.3246 65.1C51.0152 64.7281 67.2324 55.875 67.2324 44.9375C67.2295 42.3691 66.208 39.9067 64.3918 38.0906C62.5757 36.2745 60.1133 35.2529 57.5449 35.25Z" fill="#F3EDDD"/>
</svg>
