<svg width="40" height="41" viewBox="0 0 40 41" fill="none" xmlns="http://www.w3.org/2000/svg">
<path d="M34.6667 13.4938C36.4013 17.1216 36.7306 21.2633 35.591 25.1196C34.4515 28.976 31.9238 32.2735 28.496 34.3758C25.0681 36.4781 20.9831 37.2361 17.0292 36.5036C13.0753 35.7711 9.53289 33.5999 7.08566 30.4092C4.63842 27.2184 3.45984 23.2343 3.77738 19.2257C4.09492 15.2171 5.88608 11.4682 8.80514 8.70251C11.7242 5.93686 15.5643 4.35051 19.5842 4.24963C23.6041 4.14875 27.5189 5.5405 30.573 8.15626L34.1152 4.61251C34.3497 4.37796 34.6678 4.24619 34.9995 4.24619C35.3312 4.24619 35.6494 4.37796 35.8839 4.61251C36.1185 4.84706 36.2502 5.16518 36.2502 5.49689C36.2502 5.82859 36.1185 6.14671 35.8839 6.38126L20.8839 21.3813C20.6494 21.6158 20.3312 21.7476 19.9995 21.7476C19.6678 21.7476 19.3497 21.6158 19.1152 21.3813C18.8806 21.1467 18.7488 20.8286 18.7488 20.4969C18.7488 20.1652 18.8806 19.8471 19.1152 19.6125L23.4464 15.2813C22.2726 14.5049 20.8711 14.1475 19.4689 14.2668C18.0666 14.3861 16.7457 14.9752 15.7199 15.9386C14.6941 16.9021 14.0234 18.1836 13.8166 19.5756C13.6097 20.9676 13.8787 22.3887 14.58 23.6089C15.2813 24.829 16.3739 25.7767 17.6809 26.2986C18.9878 26.8205 20.4327 26.8861 21.7815 26.4846C23.1304 26.0832 24.3042 25.2383 25.1131 24.0867C25.922 22.935 26.3186 21.5441 26.2386 20.1391C26.2294 19.9749 26.2525 19.8106 26.3068 19.6554C26.3611 19.5002 26.4454 19.3572 26.555 19.2346C26.6645 19.112 26.7972 19.0122 26.9453 18.9408C27.0934 18.8695 27.2541 18.828 27.4183 18.8188C27.7498 18.8001 28.0752 18.9139 28.3228 19.1352C28.4454 19.2447 28.5452 19.3773 28.6165 19.5254C28.6879 19.6736 28.7294 19.8343 28.7386 19.9984C28.8526 21.9872 28.2845 23.9552 27.1284 25.5774C25.9723 27.1995 24.2973 28.3787 22.3803 28.9199C20.4632 29.4611 18.4189 29.332 16.5851 28.5539C14.7514 27.7758 13.238 26.3954 12.2952 24.6407C11.3523 22.886 11.0364 20.8621 11.3996 18.9035C11.7629 16.9449 12.7835 15.1689 14.2929 13.869C15.8022 12.569 17.71 11.823 19.7008 11.7542C21.6915 11.6855 23.6462 12.298 25.2417 13.4906L28.7964 9.93595C26.1914 7.77313 22.8792 6.64901 19.4959 6.7795C16.1126 6.90999 12.8967 8.28589 10.4661 10.6429C8.0354 13 6.56126 16.1719 6.32678 19.5496C6.09231 22.9273 7.11403 26.2726 9.19572 28.9429C11.2774 31.6131 14.2723 33.4202 17.6051 34.0169C20.9379 34.6136 24.3737 33.9579 27.2525 32.1758C30.1314 30.3936 32.2503 27.6107 33.2023 24.3615C34.1544 21.1123 33.8723 17.6259 32.4105 14.5719C32.2675 14.2727 32.2492 13.929 32.3597 13.6163C32.4702 13.3036 32.7003 13.0477 32.9995 12.9047C33.2987 12.7617 33.6425 12.7435 33.9551 12.8539C34.2678 12.9644 34.5237 13.1946 34.6667 13.4938Z" fill="black"/>
</svg>
