<svg width="98" height="98" viewBox="0 0 98 98" fill="none" xmlns="http://www.w3.org/2000/svg">
<circle cx="49" cy="49" r="49" fill="#708B06"/>
<path d="M40.25 42.7507V35.2507C40.25 34.9192 40.3817 34.6013 40.6161 34.3669C40.8505 34.1324 41.1685 34.0007 41.5 34.0007C41.8315 34.0007 42.1495 34.1324 42.3839 34.3669C42.6183 34.6013 42.75 34.9192 42.75 35.2507V42.7507C42.75 43.0823 42.6183 43.4002 42.3839 43.6346C42.1495 43.8691 41.8315 44.0007 41.5 44.0007C41.1685 44.0007 40.8505 43.8691 40.6161 43.6346C40.3817 43.4002 40.25 43.0823 40.25 42.7507ZM62.75 35.2507V64.0007C62.75 64.3323 62.6183 64.6502 62.3839 64.8846C62.1495 65.1191 61.8315 65.2507 61.5 65.2507C61.1685 65.2507 60.8505 65.1191 60.6161 64.8846C60.3817 64.6502 60.25 64.3323 60.25 64.0007V56.5007H52.75C52.4185 56.5007 52.1005 56.3691 51.8661 56.1346C51.6317 55.9002 51.5 55.5823 51.5 55.2507C51.5581 52.2565 51.9363 49.277 52.6281 46.3633C54.1563 40.0367 57.0531 35.7961 61.0078 34.1023C61.1979 34.0209 61.4052 33.9879 61.6112 34.0063C61.8171 34.0247 62.0153 34.0939 62.188 34.2077C62.3606 34.3215 62.5023 34.4764 62.6004 34.6584C62.6985 34.8404 62.7499 35.044 62.75 35.2507ZM60.25 37.4226C55.2235 41.2617 54.2391 50.6132 54.0469 54.0007H60.25V37.4226ZM47.7328 35.0461C47.7083 34.8819 47.6514 34.7243 47.5654 34.5824C47.4794 34.4405 47.3659 34.3172 47.2317 34.2195C47.0975 34.1219 46.9452 34.052 46.7837 34.0139C46.6222 33.9758 46.4547 33.9702 46.291 33.9975C46.1273 34.0248 45.9707 34.0844 45.8303 34.1728C45.6899 34.2613 45.5685 34.3768 45.4732 34.5126C45.3779 34.6485 45.3106 34.802 45.2752 34.9641C45.2399 35.1262 45.2371 35.2938 45.2672 35.457L46.5 42.8492C46.5 44.1753 45.9732 45.447 45.0355 46.3847C44.0979 47.3224 42.8261 47.8492 41.5 47.8492C40.1739 47.8492 38.9022 47.3224 37.9645 46.3847C37.0268 45.447 36.5 44.1753 36.5 42.8492L37.7313 35.457C37.7613 35.2938 37.7586 35.1262 37.7233 34.9641C37.6879 34.802 37.6206 34.6485 37.5253 34.5126C37.43 34.3768 37.3086 34.2613 37.1682 34.1728C37.0278 34.0844 36.8712 34.0248 36.7075 33.9975C36.5438 33.9702 36.3763 33.9758 36.2148 34.0139C36.0533 34.052 35.901 34.1219 35.7668 34.2195C35.6325 34.3172 35.5191 34.4405 35.4331 34.5824C35.347 34.7243 35.2901 34.8819 35.2656 35.0461L34.0156 42.5461C34.0049 42.6138 33.9997 42.6822 34 42.7507C34.0025 44.5223 34.6311 46.236 35.7748 47.589C36.9185 48.9419 38.5036 49.8471 40.25 50.1445V64.0007C40.25 64.3323 40.3817 64.6502 40.6161 64.8846C40.8505 65.1191 41.1685 65.2507 41.5 65.2507C41.8315 65.2507 42.1495 65.1191 42.3839 64.8846C42.6183 64.6502 42.75 64.3323 42.75 64.0007V50.1445C44.4964 49.8471 46.0815 48.9419 47.2252 47.589C48.3689 46.236 48.9975 44.5223 49 42.7507C48.9998 42.6822 48.994 42.6137 48.9828 42.5461L47.7328 35.0461Z" fill="#F3EDDD"/>
</svg>
