<svg width="98" height="98" viewBox="0 0 98 98" fill="none" xmlns="http://www.w3.org/2000/svg">
<circle cx="49" cy="49" r="49" fill="#708B06"/>
<g clip-path="url(#clip0_25_139)">
<path d="M69.9629 35.8122C69.9068 35.5751 69.791 35.3562 69.6265 35.1765C69.462 34.9967 69.2543 34.862 69.023 34.7852L65.4164 33.5825L64.2123 29.976C64.1353 29.7452 64.0005 29.5379 63.8209 29.3738C63.6413 29.2097 63.4227 29.0942 63.1859 29.0383C62.9491 28.9823 62.702 28.9878 62.4679 29.0542C62.2338 29.1205 62.0206 29.2456 61.8484 29.4175L57.2591 34.0068C53.3239 31.919 48.7702 31.3126 44.4259 32.2978C40.0815 33.2831 36.2349 35.7946 33.5854 39.3758C30.936 42.957 29.6596 47.37 29.9882 51.8125C30.3169 56.2551 32.2288 60.4322 35.3765 63.5845C38.5241 66.7368 42.6984 68.6549 47.1404 68.9901C51.5825 69.3253 55.9974 68.0554 59.5825 65.4113C63.1675 62.7671 65.6847 58.9242 66.6764 54.5813C67.6681 50.2384 67.0685 45.6838 64.9865 41.7456L69.5815 37.1506C69.7539 36.9785 69.8794 36.7652 69.9462 36.531C70.0129 36.2967 70.0187 36.0493 69.9629 35.8122ZM48.5747 66.1361C46.1909 66.1455 43.8362 65.6123 41.689 64.577C39.5418 63.5417 37.6583 62.0313 36.1811 60.1603C34.704 58.2893 33.6719 56.1067 33.1631 53.7779C32.6544 51.449 32.6821 49.0349 33.2444 46.7183C33.8067 44.4018 34.8887 42.2435 36.4086 40.4071C37.9284 38.5706 39.8462 37.104 42.0167 36.1184C44.1872 35.1328 46.5535 34.6539 48.9365 34.7182C51.3194 34.7825 53.6565 35.3881 55.7708 36.4892C55.7793 36.5235 55.7793 36.5578 55.7907 36.5921L56.9334 40.0401L54.5509 42.4255C52.5187 40.9047 49.9858 40.2102 47.4621 40.4818C44.9384 40.7534 42.6113 41.971 40.9493 43.8894C39.2872 45.8078 38.4136 48.2847 38.5043 50.8213C38.595 53.3579 39.6433 55.7661 41.4381 57.5609C43.2329 59.3557 45.641 60.404 48.1777 60.4947C50.7143 60.5854 53.1911 59.7117 55.1096 58.0497C57.028 56.3876 58.2456 54.0605 58.5172 51.5368C58.7888 49.0131 58.0943 46.4802 56.5735 44.448L58.9617 42.0598L62.4097 43.2025C62.4397 43.2125 62.4726 43.2096 62.504 43.2182C63.7574 45.6086 64.3712 48.2826 64.286 50.9803C64.2007 53.6781 63.4191 56.3079 62.0173 58.6144C60.6154 60.9209 58.6409 62.8256 56.2855 64.1436C53.93 65.4616 51.2738 66.148 48.5747 66.1361ZM55.7165 50.4243C55.7212 52.0208 55.1925 53.5731 54.2142 54.8348C53.236 56.0965 51.8643 56.9952 50.3169 57.3883C48.7695 57.7813 47.1352 57.6462 45.6734 57.0043C44.2116 56.3625 43.0061 55.2507 42.2484 53.8454C41.4906 52.4402 41.224 50.8221 41.4909 49.2481C41.7578 47.674 42.5429 46.2342 43.7215 45.1574C44.9002 44.0805 46.4048 43.4282 47.9965 43.3041C49.5881 43.18 51.1757 43.5911 52.507 44.4723L49.3046 47.6747C49.0671 47.6069 48.8217 47.5709 48.5747 47.5675C48.0097 47.5675 47.4574 47.7351 46.9876 48.049C46.5178 48.3629 46.1517 48.809 45.9355 49.331C45.7192 49.853 45.6627 50.4274 45.7729 50.9816C45.8831 51.5357 46.1552 52.0447 46.5547 52.4442C46.9542 52.8438 47.4632 53.1158 48.0174 53.2261C48.5715 53.3363 49.1459 53.2797 49.6679 53.0635C50.1899 52.8473 50.6361 52.4811 50.95 52.0114C51.2639 51.5416 51.4314 50.9893 51.4314 50.4243C51.4281 50.1773 51.392 49.9319 51.3243 49.6944L54.5267 46.492C55.3022 47.6568 55.7162 49.0249 55.7165 50.4243ZM62.4712 40.2201L59.703 39.296L58.7803 36.5264L62.2326 33.0712L62.9325 35.1637C63.0025 35.3742 63.1205 35.5654 63.2771 35.7224C63.4338 35.8793 63.6249 35.9976 63.8352 36.0679L65.9263 36.7649L62.4712 40.2201Z" fill="#F3EDDD"/>
</g>
<defs>
<clipPath id="clip0_25_139">
<rect width="40" height="40" fill="white" transform="translate(30 29)"/>
</clipPath>
</defs>
</svg>
