<svg width="33" height="32" viewBox="0 0 33 32" fill="none" xmlns="http://www.w3.org/2000/svg">
<path d="M21.2227 5.75C22.6813 5.75 24.0803 6.32946 25.1117 7.36091C26.1432 8.39236 26.7227 9.79131 26.7227 11.25V20.75C26.7227 22.2087 26.1432 23.6076 25.1117 24.6391C24.0803 25.6705 22.6813 26.25 21.2227 26.25H11.7227C10.264 26.25 8.86502 25.6705 7.83357 24.6391C6.80212 23.6076 6.22266 22.2087 6.22266 20.75V11.25C6.22266 9.79131 6.80212 8.39236 7.83357 7.36091C8.86502 6.32946 10.264 5.75 11.7227 5.75H21.2227ZM21.2227 3.75H11.7227C9.73536 3.75594 7.83115 4.54802 6.42591 5.95326C5.02067 7.35849 4.22859 9.2627 4.22266 11.25V20.75C4.22859 22.7373 5.02067 24.6415 6.42591 26.0467C7.83115 27.452 9.73536 28.2441 11.7227 28.25H21.2227C23.21 28.2441 25.1142 27.452 26.5194 26.0467C27.9246 24.6415 28.7167 22.7373 28.7227 20.75V11.25C28.7167 9.2627 27.9246 7.35849 26.5194 5.95326C25.1142 4.54802 23.21 3.75594 21.2227 3.75Z" fill="white"/>
<path d="M23.0067 8C22.7234 8 22.4464 8.08401 22.2109 8.24142C21.9753 8.39882 21.7917 8.62255 21.6833 8.88431C21.5748 9.14606 21.5465 9.43409 21.6017 9.71197C21.657 9.98984 21.7935 10.2451 21.9938 10.4454C22.1941 10.6458 22.4494 10.7822 22.7273 10.8375C23.0051 10.8927 23.2932 10.8644 23.5549 10.756C23.8167 10.6475 24.0404 10.4639 24.1978 10.2284C24.3552 9.99278 24.4392 9.71582 24.4392 9.4325C24.4392 9.24438 24.4022 9.0581 24.3302 8.88431C24.2582 8.71051 24.1527 8.55259 24.0196 8.41957C23.8866 8.28655 23.7287 8.18103 23.5549 8.10904C23.3811 8.03705 23.1948 8 23.0067 8Z" fill="white"/>
<path d="M16.5403 11.6172C17.4147 11.6167 18.2696 11.8756 18.9969 12.3611C19.7241 12.8465 20.291 13.5368 20.6259 14.3446C20.9607 15.1523 21.0485 16.0413 20.878 16.8989C20.7075 17.7565 20.2865 18.5443 19.6682 19.1626C19.0499 19.7809 18.2621 20.2019 17.4045 20.3724C16.5469 20.5429 15.658 20.4551 14.8502 20.1203C14.0424 19.7854 13.3522 19.2185 12.8667 18.4913C12.3812 17.764 12.1223 16.9091 12.1228 16.0347C12.1248 14.8637 12.5908 13.7413 13.4189 12.9132C14.2469 12.0852 15.3693 11.6192 16.5403 11.6172ZM16.5403 9.6172C15.271 9.61967 14.0309 9.99836 12.9767 10.7054C11.9225 11.4125 11.1016 12.4161 10.6177 13.5896C10.1338 14.7631 10.0086 16.0536 10.2579 17.2982C10.5072 18.5428 11.1199 19.6856 12.0185 20.5821C12.9171 21.4786 14.0613 22.0886 15.3065 22.335C16.5516 22.5815 17.8419 22.4532 19.0143 21.9666C20.1866 21.4799 21.1883 20.6567 21.8929 19.6008C22.5975 18.545 22.9733 17.304 22.9728 16.0347C22.9725 15.1908 22.8058 14.3552 22.4822 13.5757C22.1586 12.7963 21.6846 12.0883 21.0871 11.4923C20.4897 10.8962 19.7806 10.4238 19.0004 10.1021C18.2202 9.78032 17.3842 9.61556 16.5403 9.6172Z" fill="white"/>
</svg>
