<svg width="33" height="32" viewBox="0 0 33 32" fill="none" xmlns="http://www.w3.org/2000/svg">
<path d="M27.074 5.39641C24.3585 2.68103 20.6139 1.00391 16.4706 1.00391C12.327 1.00391 8.58236 2.68103 5.86748 5.39634C3.15173 8.11147 1.47461 11.8563 1.47461 15.9996C1.47461 20.1428 3.15173 23.8878 5.86748 26.603C8.58236 29.3184 12.327 30.9955 16.4706 30.9955C20.6139 30.9955 24.3585 29.3184 27.074 26.603C29.7892 23.8878 31.4663 20.1428 31.4663 15.9996C31.4663 11.8563 29.7892 8.11153 27.074 5.39641ZM26.2435 25.7726C23.744 28.2805 20.2904 29.8248 16.4706 29.8248C12.6505 29.8248 9.19692 28.2805 6.69736 25.7726C4.19005 23.2736 2.64542 19.8193 2.64542 15.9997C2.64542 12.1802 4.19005 8.72609 6.69736 6.22684C9.19692 3.71909 12.6505 2.17478 16.4706 2.17478C20.2904 2.17478 23.744 3.71909 26.2435 6.22684C28.7511 8.72609 30.2955 12.1802 30.2955 15.9997C30.2955 19.8193 28.7511 23.2736 26.2435 25.7726Z" fill="white"/>
<path d="M9.53516 16.1411V22.6875H12.8477V15.6013V13.625H9.53516V16.1411Z" fill="white"/>
<path d="M19.8664 13.6666C18.5128 13.6666 17.5996 14.25 17.2178 14.8125H17.0977V13.625H14.6602V15.4767V22.6875H17.4102V18.2918C17.4102 17.1124 17.5237 15.9752 18.9688 15.9752C20.4214 15.9752 20.4102 17.3201 20.4102 18.3747V22.6875H23.1602V17.8101C23.1602 17.3449 23.174 16.8759 23.1243 16.4772C22.9167 14.7669 22.1749 13.6666 19.8664 13.6666Z" fill="white"/>
<path d="M11.2809 9.23438C10.4091 9.23438 9.70312 9.94019 9.70312 10.8121C9.70312 11.6841 10.4091 12.3897 11.2809 12.3897C12.1528 12.3897 12.8584 11.6841 12.8584 10.8121C12.8583 9.94019 12.1527 9.23438 11.2809 9.23438Z" fill="white"/>
</svg>
